<svg width="275" height="33" viewBox="0 0 275 33" fill="none" xmlns="http://www.w3.org/2000/svg">
<path d="M10.024 18.588C11.512 16.38 12.976 14.352 14.416 12.504C15.88 10.632 17.272 9.024 18.592 7.68C19.912 6.336 21.124 5.292 22.228 4.548C23.332 3.804 24.292 3.432 25.108 3.432C25.42 3.432 25.756 3.552 26.116 3.792C26.5 4.032 26.848 4.344 27.16 4.728C27.496 5.112 27.772 5.532 27.988 5.988C28.204 6.42 28.312 6.84 28.312 7.248C26.824 7.728 25.36 8.364 23.92 9.156C22.504 9.924 21.136 10.824 19.816 11.856C18.52 12.864 17.272 13.992 16.072 15.24C14.896 16.488 13.828 17.82 12.868 19.236C13.252 20.22 13.72 21.276 14.272 22.404C14.848 23.508 15.472 24.588 16.144 25.644C16.816 26.676 17.536 27.636 18.304 28.524C19.072 29.412 19.852 30.12 20.644 30.648C20.524 30.912 20.32 31.164 20.032 31.404C19.744 31.644 19.432 31.86 19.096 32.052C18.76 32.268 18.4 32.436 18.016 32.556C17.656 32.676 17.32 32.736 17.008 32.736C16.384 32.736 15.808 32.436 15.28 31.836C14.752 31.26 14.212 30.384 13.66 29.208C13.132 28.008 12.568 26.532 11.968 24.78C11.392 23.004 10.744 20.94 10.024 18.588ZM4.588 32.916C3.676 32.7 2.92 32.316 2.32 31.764C1.72 31.236 1.168 30.564 0.664 29.748C0.88 29.292 1.132 28.692 1.42 27.948C1.732 27.204 2.104 26.292 2.536 25.212C2.968 24.108 3.484 22.8 4.084 21.288C4.684 19.752 5.38 17.964 6.172 15.924C6.676 14.628 7.084 13.536 7.396 12.648C7.732 11.76 8.008 10.896 8.224 10.056C8.464 9.192 8.692 8.244 8.908 7.212C9.124 6.18 9.376 4.872 9.664 3.288C10.672 3.48 11.584 3.924 12.4 4.62C13.24 5.316 13.96 6.156 14.56 7.14C14.296 7.476 13.984 7.992 13.624 8.688C13.288 9.36 12.904 10.176 12.472 11.136C12.04 12.096 11.56 13.164 11.032 14.34C10.504 15.516 9.952 16.764 9.376 18.084C8.08 20.964 7.06 23.604 6.316 26.004C5.572 28.38 4.996 30.684 4.588 32.916ZM35.6737 15.456C35.9137 15.456 36.1897 15.504 36.5017 15.6C36.8377 15.672 37.1377 15.78 37.4017 15.924C37.6657 16.044 37.8817 16.176 38.0497 16.32C38.2417 16.464 38.3377 16.596 38.3377 16.716C37.8577 17.724 37.4137 18.744 37.0057 19.776C36.5977 20.784 36.2497 21.756 35.9617 22.692C35.6737 23.628 35.4457 24.504 35.2777 25.32C35.1337 26.136 35.0617 26.844 35.0617 27.444C35.0617 28.116 35.1337 28.68 35.2777 29.136C35.4217 29.568 35.6617 29.88 35.9977 30.072C35.7097 30.264 35.3377 30.42 34.8817 30.54C34.4257 30.66 34.0177 30.72 33.6577 30.72C32.3617 30.72 31.7137 29.832 31.7137 28.056C31.7137 26.688 32.1697 24.816 33.0817 22.44C32.6017 23.544 32.0497 24.588 31.4257 25.572C30.8017 26.532 30.1657 27.384 29.5177 28.128C28.8697 28.872 28.2097 29.484 27.5377 29.964C26.8897 30.42 26.2897 30.696 25.7377 30.792C24.8497 30.744 24.1297 30.324 23.5777 29.532C23.0257 28.716 22.7497 27.684 22.7497 26.436C22.7497 25.092 23.0377 23.676 23.6137 22.188C24.1897 20.7 24.9217 19.32 25.8097 18.048C26.7217 16.776 27.7057 15.72 28.7617 14.88C29.8177 14.016 30.8377 13.56 31.8217 13.512C32.0617 13.584 32.3257 13.728 32.6137 13.944C32.9257 14.16 33.2137 14.412 33.4777 14.7C33.7657 14.988 34.0057 15.288 34.1977 15.6C34.3897 15.888 34.4977 16.14 34.5217 16.356C33.5617 16.5 32.5657 16.968 31.5337 17.76C30.5257 18.552 29.6017 19.512 28.7617 20.64C27.9457 21.744 27.2737 22.932 26.7457 24.204C26.2177 25.476 25.9537 26.664 25.9537 27.768C25.9537 28.224 26.1217 28.512 26.4577 28.632C27.1537 28.488 27.9577 27.9 28.8697 26.868C29.7817 25.812 30.8857 24.192 32.1817 22.008C32.4217 21.576 32.6857 21.096 32.9737 20.568C33.2857 20.04 33.5977 19.488 33.9097 18.912C34.2217 18.336 34.5217 17.76 34.8097 17.184C35.1217 16.584 35.4097 16.008 35.6737 15.456ZM45.9959 12.54C46.6199 12.732 47.2079 13.164 47.7599 13.836C48.3119 14.484 48.7199 15.204 48.9839 15.996C48.7199 16.644 48.3119 17.424 47.7599 18.336C47.2079 19.248 46.6559 20.184 46.1039 21.144C45.5519 22.08 45.0479 22.98 44.5919 23.844C44.1599 24.684 43.9079 25.38 43.8359 25.932C44.2199 25.524 44.6399 25.056 45.0959 24.528C45.5759 23.976 46.0319 23.436 46.4639 22.908C46.9199 22.356 47.3399 21.864 47.7239 21.432C48.1079 20.976 48.4079 20.64 48.6239 20.424C49.0799 19.944 49.6199 19.392 50.2439 18.768C50.8679 18.12 51.5159 17.52 52.1879 16.968C52.8839 16.392 53.5799 15.912 54.2759 15.528C54.9719 15.12 55.6079 14.916 56.1839 14.916C56.8079 14.916 57.3239 15.132 57.7319 15.564C58.1639 15.972 58.4999 16.404 58.7399 16.86C58.7399 16.908 58.6439 16.98 58.4519 17.076C58.2839 17.148 58.0319 17.376 57.6959 17.76C57.3599 18.192 56.9759 18.792 56.5439 19.56C56.1359 20.304 55.7279 21.12 55.3199 22.008C54.9359 22.872 54.6119 23.76 54.3479 24.672C54.0839 25.584 53.9519 26.412 53.9519 27.156C53.9519 27.756 54.0239 28.14 54.1679 28.308C54.3359 28.476 54.5639 28.56 54.8519 28.56C55.1159 28.56 55.3919 28.5 55.6799 28.38C55.9679 28.26 56.1959 28.2 56.3639 28.2C56.4599 28.248 56.5319 28.356 56.5799 28.524C56.6519 28.668 56.6879 28.8 56.6879 28.92C56.4959 29.088 56.2679 29.256 56.0039 29.424C55.7399 29.592 55.4639 29.748 55.1759 29.892C54.8879 30.036 54.5999 30.156 54.3119 30.252C54.0479 30.348 53.8079 30.396 53.5919 30.396C52.8959 30.396 52.3199 30.288 51.8639 30.072C51.4319 29.88 51.0839 29.616 50.8199 29.28C50.5799 28.944 50.4119 28.548 50.3159 28.092C50.2199 27.612 50.1719 27.108 50.1719 26.58C50.1719 26.292 50.1959 25.968 50.2439 25.608C50.2919 25.248 50.3879 24.828 50.5319 24.348C50.6759 23.844 50.8799 23.256 51.1439 22.584C51.4079 21.888 51.7439 21.06 52.1519 20.1C52.1039 20.1 51.7799 20.268 51.1799 20.604C50.5799 20.94 49.9319 21.456 49.2359 22.152C48.1079 23.232 47.0879 24.3 46.1759 25.356C45.2879 26.412 44.3759 27.588 43.4399 28.884C42.9119 29.628 42.4439 30.252 42.0359 30.756C41.6519 31.284 41.3159 31.632 41.0279 31.8C40.5239 31.512 40.1519 31.104 39.9119 30.576C39.6719 30.072 39.4919 29.544 39.3719 28.992C39.3719 28.536 39.4319 27.96 39.5519 27.264C39.6959 26.568 39.8759 25.8 40.0919 24.96C40.3319 24.096 40.6199 23.196 40.9559 22.26C41.2919 21.324 41.6639 20.388 42.0719 19.452C42.9839 17.34 43.8119 15.684 44.5559 14.484C45.3239 13.284 45.8039 12.636 45.9959 12.54ZM59.8213 23.664C59.8213 22.296 60.0973 20.976 60.6493 19.704C61.2253 18.408 61.9693 17.268 62.8813 16.284C63.8173 15.276 64.8733 14.472 66.0493 13.872C67.2493 13.248 68.4853 12.936 69.7573 12.936C71.0053 12.936 71.9653 13.248 72.6373 13.872C73.3093 14.496 73.6453 15.384 73.6453 16.536C73.6453 17.088 73.5613 17.628 73.3933 18.156C73.2493 18.66 73.0453 19.116 72.7813 19.524C72.5413 19.932 72.2533 20.268 71.9173 20.532C71.5813 20.772 71.2453 20.892 70.9093 20.892C70.6213 20.892 70.3213 20.808 70.0093 20.64C69.7213 20.448 69.4813 20.208 69.2893 19.92C70.8973 18.456 71.7013 17.124 71.7013 15.924C71.7013 15.228 71.4253 14.88 70.8733 14.88C70.3933 14.88 69.7933 15.108 69.0733 15.564C68.3533 16.02 67.6573 16.62 66.9853 17.364C65.9533 18.516 65.1613 19.8 64.6093 21.216C64.0813 22.608 63.8173 24.072 63.8173 25.608C63.8173 27.552 64.2493 28.716 65.1133 29.1C65.4733 29.052 65.8933 28.944 66.3733 28.776C66.8533 28.608 67.3693 28.392 67.9213 28.128C68.4733 27.84 69.0373 27.516 69.6133 27.156C70.2133 26.796 70.7893 26.412 71.3413 26.004C71.4373 26.076 71.5213 26.184 71.5933 26.328C71.6653 26.472 71.7013 26.604 71.7013 26.724C71.2933 27.228 70.8253 27.72 70.2973 28.2C69.7693 28.68 69.2173 29.124 68.6413 29.532C68.0653 29.916 67.5013 30.24 66.9493 30.504C66.4213 30.792 65.9533 30.972 65.5453 31.044C64.7533 30.972 64.0093 30.72 63.3133 30.288C62.6173 29.88 62.0053 29.34 61.4773 28.668C60.9733 27.996 60.5653 27.228 60.2533 26.364C59.9653 25.5 59.8213 24.6 59.8213 23.664ZM87.6105 15.096C87.5145 16.584 87.2505 17.868 86.8185 18.948C86.3865 20.004 85.7625 20.94 84.9465 21.756C84.1545 22.548 83.1825 23.268 82.0305 23.916C80.8785 24.564 79.5345 25.188 77.9985 25.788C77.9985 25.932 77.9865 26.088 77.9625 26.256C77.9625 26.4 77.9625 26.556 77.9625 26.724C77.9625 27.036 77.9865 27.36 78.0345 27.696C78.0825 28.032 78.1665 28.344 78.2865 28.632C78.4065 28.92 78.5745 29.16 78.7905 29.352C79.0065 29.52 79.2825 29.604 79.6185 29.604C80.2665 29.604 80.9025 29.46 81.5265 29.172C82.1505 28.884 82.7385 28.536 83.2905 28.128C83.8665 27.696 84.3945 27.24 84.8745 26.76C85.3785 26.256 85.8225 25.8 86.2065 25.392C86.4465 25.608 86.6505 25.812 86.8185 26.004C85.7385 27.444 84.5505 28.644 83.2545 29.604C81.9825 30.54 80.7705 31.14 79.6185 31.404C77.9625 31.212 76.6665 30.612 75.7305 29.604C74.8185 28.572 74.3625 27.336 74.3625 25.896C74.3625 24.912 74.4945 23.916 74.7585 22.908C75.0465 21.876 75.4305 20.892 75.9105 19.956C76.4145 18.996 76.9905 18.096 77.6385 17.256C78.3105 16.416 79.0185 15.684 79.7625 15.06C80.5305 14.436 81.3105 13.944 82.1025 13.584C82.9185 13.224 83.7225 13.044 84.5145 13.044C85.6185 13.188 86.6505 13.872 87.6105 15.096ZM85.1265 16.284C84.4785 16.38 83.8065 16.644 83.1105 17.076C82.4145 17.508 81.7545 18.084 81.1305 18.804C80.5305 19.524 79.9785 20.364 79.4745 21.324C78.9705 22.284 78.5745 23.316 78.2865 24.42C80.2065 23.46 81.8025 22.284 83.0745 20.892C84.3465 19.476 85.0305 17.94 85.1265 16.284ZM89.2412 27.696C89.2412 26.64 89.4932 25.164 89.9972 23.268C90.5012 21.348 91.2092 19.116 92.1212 16.572C93.6092 12.516 95.0012 9.144 96.2972 6.456C97.6172 3.744 98.9012 1.632 100.149 0.119998C100.437 0.167998 100.785 0.287998 101.193 0.479998C101.625 0.671999 102.045 0.887999 102.453 1.128C102.861 1.344 103.221 1.572 103.533 1.812C103.869 2.052 104.085 2.244 104.181 2.388C102.309 4.596 100.665 6.972 99.2492 9.516C97.8332 12.06 96.5372 14.976 95.3612 18.264C94.3532 21.096 93.5852 23.652 93.0572 25.932C92.5292 28.188 92.2652 30.072 92.2652 31.584C92.2652 31.992 92.2652 32.244 92.2652 32.34C92.2652 32.436 92.2772 32.532 92.3012 32.628C91.9652 32.58 91.6772 32.496 91.4372 32.376C91.1972 32.256 91.0412 32.112 90.9692 31.944C90.9212 31.824 90.7892 31.644 90.5732 31.404C90.3572 31.188 90.1652 31.02 89.9972 30.9C89.7812 30.756 89.6012 30.384 89.4572 29.784C89.3132 29.16 89.2412 28.464 89.2412 27.696ZM110.064 15.456C110.304 15.456 110.58 15.504 110.892 15.6C111.228 15.672 111.528 15.78 111.792 15.924C112.056 16.044 112.272 16.176 112.44 16.32C112.632 16.464 112.728 16.596 112.728 16.716C112.248 17.724 111.804 18.744 111.396 19.776C110.988 20.784 110.64 21.756 110.352 22.692C110.064 23.628 109.836 24.504 109.668 25.32C109.524 26.136 109.452 26.844 109.452 27.444C109.452 28.116 109.524 28.68 109.668 29.136C109.812 29.568 110.052 29.88 110.388 30.072C110.1 30.264 109.728 30.42 109.272 30.54C108.816 30.66 108.408 30.72 108.048 30.72C106.752 30.72 106.104 29.832 106.104 28.056C106.104 26.688 106.56 24.816 107.472 22.44C106.992 23.544 106.44 24.588 105.816 25.572C105.192 26.532 104.556 27.384 103.908 28.128C103.26 28.872 102.6 29.484 101.928 29.964C101.28 30.42 100.68 30.696 100.128 30.792C99.2403 30.744 98.5203 30.324 97.9683 29.532C97.4163 28.716 97.1403 27.684 97.1403 26.436C97.1403 25.092 97.4283 23.676 98.0043 22.188C98.5803 20.7 99.3123 19.32 100.2 18.048C101.112 16.776 102.096 15.72 103.152 14.88C104.208 14.016 105.228 13.56 106.212 13.512C106.452 13.584 106.716 13.728 107.004 13.944C107.316 14.16 107.604 14.412 107.868 14.7C108.156 14.988 108.396 15.288 108.588 15.6C108.78 15.888 108.888 16.14 108.912 16.356C107.952 16.5 106.956 16.968 105.924 17.76C104.916 18.552 103.992 19.512 103.152 20.64C102.336 21.744 101.664 22.932 101.136 24.204C100.608 25.476 100.344 26.664 100.344 27.768C100.344 28.224 100.512 28.512 100.848 28.632C101.544 28.488 102.348 27.9 103.26 26.868C104.172 25.812 105.276 24.192 106.572 22.008C106.812 21.576 107.076 21.096 107.364 20.568C107.676 20.04 107.988 19.488 108.3 18.912C108.612 18.336 108.912 17.76 109.2 17.184C109.512 16.584 109.8 16.008 110.064 15.456ZM113.691 29.28C113.811 28.584 114.015 27.672 114.303 26.544C114.615 25.392 114.975 24.18 115.383 22.908C115.791 21.612 116.223 20.316 116.679 19.02C117.135 17.724 117.579 16.56 118.011 15.528C118.323 14.784 118.599 14.208 118.839 13.8C119.079 13.368 119.343 13.008 119.631 12.72C119.967 12.768 120.315 12.852 120.675 12.972C121.035 13.092 121.383 13.236 121.719 13.404C122.055 13.572 122.355 13.752 122.619 13.944C122.883 14.112 123.087 14.28 123.231 14.448C122.583 15.216 122.007 16.092 121.503 17.076C121.023 18.06 120.531 19.32 120.027 20.856C121.323 19.704 122.463 18.6 123.447 17.544C124.455 16.488 125.391 15.312 126.255 14.016C126.399 13.896 126.651 13.836 127.011 13.836C127.347 13.836 127.671 13.896 127.983 14.016C128.295 14.112 128.511 14.256 128.631 14.448C128.199 15.6 127.983 16.74 127.983 17.868C127.983 18.924 128.139 19.716 128.451 20.244C128.427 20.388 128.259 20.664 127.947 21.072C127.659 21.48 127.335 21.864 126.975 22.224C126.327 21.888 125.751 21.432 125.247 20.856C124.743 20.256 124.371 19.608 124.131 18.912C123.003 19.704 122.043 20.484 121.251 21.252C120.459 21.996 119.775 22.836 119.199 23.772C118.647 24.684 118.167 25.74 117.759 26.94C117.375 28.14 117.003 29.568 116.643 31.224C116.427 31.2 116.163 31.116 115.851 30.972C115.563 30.852 115.263 30.696 114.951 30.504C114.663 30.312 114.399 30.108 114.159 29.892C113.919 29.676 113.763 29.472 113.691 29.28ZM129.11 27.588C129.11 27.372 129.122 27.108 129.146 26.796C129.194 26.46 129.266 26.028 129.362 25.5C129.458 24.948 129.578 24.288 129.722 23.52C129.89 22.752 130.094 21.828 130.334 20.748C130.382 20.508 130.49 20.124 130.658 19.596C130.826 19.068 131.042 18.516 131.306 17.94C131.594 17.34 131.93 16.764 132.314 16.212C132.722 15.66 133.202 15.252 133.754 14.988C134.162 15.084 134.702 15.336 135.374 15.744C136.046 16.128 136.622 16.668 137.102 17.364C136.55 17.988 136.082 18.612 135.698 19.236C135.338 19.86 135.002 20.508 134.69 21.18C134.402 21.852 134.126 22.548 133.862 23.268C133.622 23.988 133.346 24.744 133.034 25.536C132.77 26.208 132.53 26.904 132.314 27.624C132.098 28.32 131.978 28.932 131.954 29.46C131.954 29.892 131.942 30.192 131.918 30.36C131.918 30.552 131.858 30.648 131.738 30.648C131.642 30.648 131.45 30.588 131.162 30.468C130.874 30.348 130.574 30.168 130.262 29.928C129.974 29.664 129.71 29.34 129.47 28.956C129.23 28.572 129.11 28.116 129.11 27.588ZM135.986 11.964C135.986 11.82 136.022 11.604 136.094 11.316C135.974 11.196 135.866 11.016 135.77 10.776C135.698 10.536 135.662 10.32 135.662 10.128C135.662 9.912 135.686 9.624 135.734 9.264C135.806 8.88 135.89 8.472 135.986 8.04C136.082 7.608 136.202 7.164 136.346 6.708C136.49 6.228 136.634 5.796 136.778 5.412C137.066 5.412 137.414 5.496 137.822 5.664C138.254 5.808 138.686 6.012 139.118 6.276C139.55 6.516 139.946 6.792 140.306 7.104C140.666 7.392 140.942 7.668 141.134 7.932C140.87 8.196 140.522 8.568 140.09 9.048C139.658 9.504 139.238 9.996 138.83 10.524C138.422 11.028 138.05 11.508 137.714 11.964C137.378 12.42 137.162 12.744 137.066 12.936C136.778 12.888 136.526 12.768 136.31 12.576C136.094 12.36 135.986 12.156 135.986 11.964ZM150.002 15.456C150.242 15.456 150.518 15.504 150.83 15.6C151.166 15.672 151.466 15.78 151.73 15.924C151.994 16.044 152.21 16.176 152.378 16.32C152.57 16.464 152.666 16.596 152.666 16.716C152.186 17.724 151.742 18.744 151.334 19.776C150.926 20.784 150.578 21.756 150.29 22.692C150.002 23.628 149.774 24.504 149.606 25.32C149.462 26.136 149.39 26.844 149.39 27.444C149.39 28.116 149.462 28.68 149.606 29.136C149.75 29.568 149.99 29.88 150.326 30.072C150.038 30.264 149.666 30.42 149.21 30.54C148.754 30.66 148.346 30.72 147.986 30.72C146.69 30.72 146.042 29.832 146.042 28.056C146.042 26.688 146.498 24.816 147.41 22.44C146.93 23.544 146.378 24.588 145.754 25.572C145.13 26.532 144.494 27.384 143.846 28.128C143.198 28.872 142.538 29.484 141.866 29.964C141.218 30.42 140.618 30.696 140.066 30.792C139.178 30.744 138.458 30.324 137.906 29.532C137.354 28.716 137.078 27.684 137.078 26.436C137.078 25.092 137.366 23.676 137.942 22.188C138.518 20.7 139.25 19.32 140.138 18.048C141.05 16.776 142.034 15.72 143.09 14.88C144.146 14.016 145.166 13.56 146.15 13.512C146.39 13.584 146.654 13.728 146.942 13.944C147.254 14.16 147.542 14.412 147.806 14.7C148.094 14.988 148.334 15.288 148.526 15.6C148.718 15.888 148.826 16.14 148.85 16.356C147.89 16.5 146.894 16.968 145.862 17.76C144.854 18.552 143.93 19.512 143.09 20.64C142.274 21.744 141.602 22.932 141.074 24.204C140.546 25.476 140.282 26.664 140.282 27.768C140.282 28.224 140.45 28.512 140.786 28.632C141.482 28.488 142.286 27.9 143.198 26.868C144.11 25.812 145.214 24.192 146.51 22.008C146.75 21.576 147.014 21.096 147.302 20.568C147.614 20.04 147.926 19.488 148.238 18.912C148.55 18.336 148.85 17.76 149.138 17.184C149.45 16.584 149.738 16.008 150.002 15.456ZM187.73 10.596C187.73 11.916 187.394 13.176 186.722 14.376C186.074 15.576 185.186 16.632 184.058 17.544C182.954 18.432 181.646 19.14 180.134 19.668C178.646 20.196 177.062 20.46 175.382 20.46C174.782 20.46 174.302 20.388 173.942 20.244C173.606 20.076 173.222 19.764 172.79 19.308C171.59 21.924 170.606 24.336 169.838 26.544C169.094 28.728 168.506 30.852 168.074 32.916C167.162 32.7 166.418 32.316 165.842 31.764C165.266 31.236 164.738 30.564 164.258 29.748C164.498 29.292 164.786 28.692 165.122 27.948C165.458 27.204 165.866 26.292 166.346 25.212C166.826 24.108 167.378 22.8 168.002 21.288C168.65 19.752 169.406 17.964 170.27 15.924C170.654 14.988 170.99 14.172 171.278 13.476C171.566 12.78 171.818 12.132 172.034 11.532C172.25 10.908 172.442 10.296 172.61 9.696C172.802 9.096 172.994 8.436 173.186 7.716C172.058 8.076 171.014 8.496 170.054 8.976C169.118 9.456 168.338 9.96 167.714 10.488C167.498 10.344 167.27 10.128 167.03 9.84C166.814 9.552 166.61 9.24 166.418 8.904C166.226 8.544 166.058 8.184 165.914 7.824C165.77 7.464 165.686 7.14 165.662 6.852C166.358 6.372 167.222 5.928 168.254 5.52C169.286 5.112 170.39 4.764 171.566 4.476C172.742 4.164 173.954 3.924 175.202 3.756C176.474 3.588 177.686 3.504 178.838 3.504C180.206 3.504 181.442 3.684 182.546 4.044C183.65 4.38 184.586 4.86 185.354 5.484C186.122 6.108 186.71 6.852 187.118 7.716C187.526 8.58 187.73 9.54 187.73 10.596ZM181.322 6.276C180.41 6.276 179.474 6.348 178.514 6.492L178.946 7.14C178.706 7.452 178.406 7.92 178.046 8.544C177.686 9.168 177.29 9.924 176.858 10.812C176.426 11.676 175.946 12.648 175.418 13.728C174.914 14.808 174.374 15.948 173.798 17.148C175.67 17.148 177.374 16.98 178.91 16.644C180.446 16.284 181.754 15.804 182.834 15.204C183.938 14.58 184.79 13.86 185.39 13.044C186.014 12.228 186.326 11.352 186.326 10.416C186.326 9.168 185.906 8.172 185.066 7.428C184.226 6.66 182.978 6.276 181.322 6.276ZM185.058 29.28C185.178 28.584 185.382 27.672 185.67 26.544C185.982 25.392 186.342 24.18 186.75 22.908C187.158 21.612 187.59 20.316 188.046 19.02C188.502 17.724 188.946 16.56 189.378 15.528C189.69 14.784 189.966 14.208 190.206 13.8C190.446 13.368 190.71 13.008 190.998 12.72C191.334 12.768 191.682 12.852 192.042 12.972C192.402 13.092 192.75 13.236 193.086 13.404C193.422 13.572 193.722 13.752 193.986 13.944C194.25 14.112 194.454 14.28 194.598 14.448C193.95 15.216 193.374 16.092 192.87 17.076C192.39 18.06 191.898 19.32 191.394 20.856C192.69 19.704 193.83 18.6 194.814 17.544C195.822 16.488 196.758 15.312 197.622 14.016C197.766 13.896 198.018 13.836 198.378 13.836C198.714 13.836 199.038 13.896 199.35 14.016C199.662 14.112 199.878 14.256 199.998 14.448C199.566 15.6 199.35 16.74 199.35 17.868C199.35 18.924 199.506 19.716 199.818 20.244C199.794 20.388 199.626 20.664 199.314 21.072C199.026 21.48 198.702 21.864 198.342 22.224C197.694 21.888 197.118 21.432 196.614 20.856C196.11 20.256 195.738 19.608 195.498 18.912C194.37 19.704 193.41 20.484 192.618 21.252C191.826 21.996 191.142 22.836 190.566 23.772C190.014 24.684 189.534 25.74 189.126 26.94C188.742 28.14 188.37 29.568 188.01 31.224C187.794 31.2 187.53 31.116 187.218 30.972C186.93 30.852 186.63 30.696 186.318 30.504C186.03 30.312 185.766 30.108 185.526 29.892C185.286 29.676 185.13 29.472 185.058 29.28ZM212.861 15.456C213.101 15.456 213.377 15.504 213.689 15.6C214.025 15.672 214.325 15.78 214.589 15.924C214.853 16.044 215.069 16.176 215.237 16.32C215.429 16.464 215.525 16.596 215.525 16.716C215.045 17.724 214.601 18.744 214.193 19.776C213.785 20.784 213.437 21.756 213.149 22.692C212.861 23.628 212.633 24.504 212.465 25.32C212.321 26.136 212.249 26.844 212.249 27.444C212.249 28.116 212.321 28.68 212.465 29.136C212.609 29.568 212.849 29.88 213.185 30.072C212.897 30.264 212.525 30.42 212.069 30.54C211.613 30.66 211.205 30.72 210.845 30.72C209.549 30.72 208.901 29.832 208.901 28.056C208.901 26.688 209.357 24.816 210.269 22.44C209.789 23.544 209.237 24.588 208.613 25.572C207.989 26.532 207.353 27.384 206.705 28.128C206.057 28.872 205.397 29.484 204.725 29.964C204.077 30.42 203.477 30.696 202.925 30.792C202.037 30.744 201.317 30.324 200.765 29.532C200.213 28.716 199.937 27.684 199.937 26.436C199.937 25.092 200.225 23.676 200.801 22.188C201.377 20.7 202.109 19.32 202.997 18.048C203.909 16.776 204.893 15.72 205.949 14.88C207.005 14.016 208.025 13.56 209.009 13.512C209.249 13.584 209.513 13.728 209.801 13.944C210.113 14.16 210.401 14.412 210.665 14.7C210.953 14.988 211.193 15.288 211.385 15.6C211.577 15.888 211.685 16.14 211.709 16.356C210.749 16.5 209.753 16.968 208.721 17.76C207.713 18.552 206.789 19.512 205.949 20.64C205.133 21.744 204.461 22.932 203.933 24.204C203.405 25.476 203.141 26.664 203.141 27.768C203.141 28.224 203.309 28.512 203.645 28.632C204.341 28.488 205.145 27.9 206.057 26.868C206.969 25.812 208.073 24.192 209.369 22.008C209.609 21.576 209.873 21.096 210.161 20.568C210.473 20.04 210.785 19.488 211.097 18.912C211.409 18.336 211.709 17.76 211.997 17.184C212.309 16.584 212.597 16.008 212.861 15.456ZM217.429 28.524C217.429 28.044 217.477 27.372 217.573 26.508C217.693 25.644 217.837 24.708 218.005 23.7C218.197 22.692 218.401 21.66 218.617 20.604C218.857 19.548 219.097 18.6 219.337 17.76C219.649 16.632 220.129 15.768 220.777 15.168C221.449 14.544 222.277 14.232 223.261 14.232C223.789 14.232 224.305 14.316 224.809 14.484C225.337 14.652 225.649 14.868 225.745 15.132C225.049 15.708 224.485 16.428 224.053 17.292C223.645 18.132 223.309 19.044 223.045 20.028C222.805 20.988 222.613 21.984 222.469 23.016C222.349 24.024 222.217 24.972 222.073 25.86C222.865 24.804 223.609 23.856 224.305 23.016C225.025 22.152 225.661 21.468 226.213 20.964C226.957 20.268 227.461 19.692 227.725 19.236C227.989 18.756 228.217 18.24 228.409 17.688C228.553 17.256 228.721 16.752 228.913 16.176C229.129 15.6 229.477 15.072 229.957 14.592C230.053 14.568 230.257 14.556 230.569 14.556C230.809 14.556 231.061 14.568 231.325 14.592C231.613 14.616 231.877 14.664 232.117 14.736C232.357 14.808 232.561 14.892 232.729 14.988C232.897 15.084 232.993 15.204 233.017 15.348C232.633 15.852 232.273 16.644 231.937 17.724C231.601 18.78 231.301 19.944 231.037 21.216C230.773 22.488 230.533 23.76 230.317 25.032C230.101 26.28 229.909 27.336 229.741 28.2C229.837 28.152 230.053 27.96 230.389 27.624C230.725 27.288 231.097 26.868 231.505 26.364C231.937 25.86 232.381 25.308 232.837 24.708C233.317 24.108 233.737 23.52 234.097 22.944C234.553 22.248 234.925 21.6 235.213 21C235.525 20.376 235.789 19.716 236.005 19.02C236.245 18.324 236.461 17.556 236.653 16.716C236.845 15.852 237.049 14.832 237.265 13.656C237.409 13.464 237.721 13.308 238.201 13.188C238.705 13.044 239.161 12.972 239.569 12.972C239.929 12.972 240.193 13.032 240.361 13.152C240.241 14.496 240.013 15.696 239.677 16.752C239.365 17.808 238.933 18.84 238.381 19.848C237.829 20.832 237.145 21.828 236.329 22.836C235.513 23.82 234.553 24.9 233.449 26.076C232.993 26.556 232.489 27.084 231.937 27.66C231.409 28.236 230.881 28.776 230.353 29.28C229.849 29.76 229.369 30.168 228.913 30.504C228.481 30.84 228.145 31.008 227.905 31.008C227.353 31.008 226.897 30.792 226.537 30.36C226.177 29.928 225.997 29.376 225.997 28.704C225.997 28.008 226.021 27.408 226.069 26.904C226.141 26.376 226.249 25.824 226.393 25.248C226.537 24.72 226.645 24.276 226.717 23.916C226.813 23.556 226.885 23.244 226.933 22.98C227.005 22.716 227.053 22.488 227.077 22.296C227.101 22.104 227.125 21.912 227.149 21.72C226.957 21.816 226.705 22.02 226.393 22.332C226.081 22.62 225.757 22.968 225.421 23.376C225.085 23.76 224.749 24.156 224.413 24.564C224.077 24.972 223.801 25.32 223.585 25.608C223.129 26.232 222.733 26.784 222.397 27.264C222.061 27.744 221.737 28.2 221.425 28.632C221.137 29.064 220.849 29.508 220.561 29.964C220.273 30.396 219.937 30.864 219.553 31.368C218.785 31.128 218.233 30.768 217.897 30.288C217.585 29.808 217.429 29.22 217.429 28.524ZM245.789 12.54C246.413 12.732 247.001 13.164 247.553 13.836C248.105 14.484 248.513 15.204 248.777 15.996C248.513 16.644 248.105 17.424 247.553 18.336C247.001 19.248 246.449 20.184 245.897 21.144C245.345 22.08 244.841 22.98 244.385 23.844C243.953 24.684 243.701 25.38 243.629 25.932C244.013 25.524 244.433 25.056 244.889 24.528C245.369 23.976 245.825 23.436 246.257 22.908C246.713 22.356 247.133 21.864 247.517 21.432C247.901 20.976 248.201 20.64 248.417 20.424C248.873 19.944 249.413 19.392 250.037 18.768C250.661 18.12 251.309 17.52 251.981 16.968C252.677 16.392 253.373 15.912 254.069 15.528C254.765 15.12 255.401 14.916 255.977 14.916C256.601 14.916 257.117 15.132 257.525 15.564C257.957 15.972 258.293 16.404 258.533 16.86C258.533 16.908 258.437 16.98 258.245 17.076C258.077 17.148 257.825 17.376 257.489 17.76C257.153 18.192 256.769 18.792 256.337 19.56C255.929 20.304 255.521 21.12 255.113 22.008C254.729 22.872 254.405 23.76 254.141 24.672C253.877 25.584 253.745 26.412 253.745 27.156C253.745 27.756 253.817 28.14 253.961 28.308C254.129 28.476 254.357 28.56 254.645 28.56C254.909 28.56 255.185 28.5 255.473 28.38C255.761 28.26 255.989 28.2 256.157 28.2C256.253 28.248 256.325 28.356 256.373 28.524C256.445 28.668 256.481 28.8 256.481 28.92C256.289 29.088 256.061 29.256 255.797 29.424C255.533 29.592 255.257 29.748 254.969 29.892C254.681 30.036 254.393 30.156 254.105 30.252C253.841 30.348 253.601 30.396 253.385 30.396C252.689 30.396 252.113 30.288 251.657 30.072C251.225 29.88 250.877 29.616 250.613 29.28C250.373 28.944 250.205 28.548 250.109 28.092C250.013 27.612 249.965 27.108 249.965 26.58C249.965 26.292 249.989 25.968 250.037 25.608C250.085 25.248 250.181 24.828 250.325 24.348C250.469 23.844 250.673 23.256 250.937 22.584C251.201 21.888 251.537 21.06 251.945 20.1C251.897 20.1 251.573 20.268 250.973 20.604C250.373 20.94 249.725 21.456 249.029 22.152C247.901 23.232 246.881 24.3 245.969 25.356C245.081 26.412 244.169 27.588 243.233 28.884C242.705 29.628 242.237 30.252 241.829 30.756C241.445 31.284 241.109 31.632 240.821 31.8C240.317 31.512 239.945 31.104 239.705 30.576C239.465 30.072 239.285 29.544 239.165 28.992C239.165 28.536 239.225 27.96 239.345 27.264C239.489 26.568 239.669 25.8 239.885 24.96C240.125 24.096 240.413 23.196 240.749 22.26C241.085 21.324 241.457 20.388 241.865 19.452C242.777 17.34 243.605 15.684 244.349 14.484C245.117 13.284 245.597 12.636 245.789 12.54ZM271.818 15.456C272.058 15.456 272.334 15.504 272.646 15.6C272.982 15.672 273.282 15.78 273.546 15.924C273.81 16.044 274.026 16.176 274.194 16.32C274.386 16.464 274.482 16.596 274.482 16.716C274.002 17.724 273.558 18.744 273.15 19.776C272.742 20.784 272.394 21.756 272.106 22.692C271.818 23.628 271.59 24.504 271.422 25.32C271.278 26.136 271.206 26.844 271.206 27.444C271.206 28.116 271.278 28.68 271.422 29.136C271.566 29.568 271.806 29.88 272.142 30.072C271.854 30.264 271.482 30.42 271.026 30.54C270.57 30.66 270.162 30.72 269.802 30.72C268.506 30.72 267.858 29.832 267.858 28.056C267.858 26.688 268.314 24.816 269.226 22.44C268.746 23.544 268.194 24.588 267.57 25.572C266.946 26.532 266.31 27.384 265.662 28.128C265.014 28.872 264.354 29.484 263.682 29.964C263.034 30.42 262.434 30.696 261.882 30.792C260.994 30.744 260.274 30.324 259.722 29.532C259.17 28.716 258.894 27.684 258.894 26.436C258.894 25.092 259.182 23.676 259.758 22.188C260.334 20.7 261.066 19.32 261.954 18.048C262.866 16.776 263.85 15.72 264.906 14.88C265.962 14.016 266.982 13.56 267.966 13.512C268.206 13.584 268.47 13.728 268.758 13.944C269.07 14.16 269.358 14.412 269.622 14.7C269.91 14.988 270.15 15.288 270.342 15.6C270.534 15.888 270.642 16.14 270.666 16.356C269.706 16.5 268.71 16.968 267.678 17.76C266.67 18.552 265.746 19.512 264.906 20.64C264.09 21.744 263.418 22.932 262.89 24.204C262.362 25.476 262.098 26.664 262.098 27.768C262.098 28.224 262.266 28.512 262.602 28.632C263.298 28.488 264.102 27.9 265.014 26.868C265.926 25.812 267.03 24.192 268.326 22.008C268.566 21.576 268.83 21.096 269.118 20.568C269.43 20.04 269.742 19.488 270.054 18.912C270.366 18.336 270.666 17.76 270.954 17.184C271.266 16.584 271.554 16.008 271.818 15.456Z" fill="#0DBEE4"/>
</svg>
